<?xml version="1.0" encoding="utf-8"?>
<!-- Generator: Adobe Illustrator 23.0.5, SVG Export Plug-In . SVG Version: 6.00 Build 0)  -->
<svg version="1.1" id="Layer_1" xmlns="http://www.w3.org/2000/svg" xmlns:xlink="http://www.w3.org/1999/xlink" x="0px" y="0px"
	 viewBox="0 0 1080 200" style="enable-background:new 0 0 1080 200;" xml:space="preserve">
<style type="text/css">
	.st0{fill:#FFFFFF;}
	.st1{fill:#F0B51B;}
</style>
<g>
	<path class="st0" d="M1010.8,44.7c-3-14.2-11.6-22.7-25.8-25.2c-9.1-1.6-18-0.3-26.7,2.1c-25.6,7.2-47.4,21-66.8,38.8
		c-0.7,0.7-1.5,1.2-2.3,1.5c0.7,0,1.4,0.1,2.1,0.1c0.8-0.7,1.3-1.1,1.9-1.5c17.2-12.6,36.5-19.9,57.5-22.9c12.5-1.8,25-1.8,37.3,1.8
		c7.4,2.2,14,5.6,19,11.7c2.2,2.6,3.7,5.5,5,8.6C1012.3,54.6,1011.8,49.6,1010.8,44.7z"/>
	<path class="st1" d="M979.9,151.5c6.4-6.4,12.3-12.9,17.6-20c10.7-14.1,19.2-29.3,24.8-46.1c3.9-11.8,6.4-23.9,5.2-36.5
		c-1-10.3-4.2-19.6-11.6-27.1c-6.3-6.3-14-10.1-22.7-12c-3.8-0.8-7.6-1.4-12.1-1.8c3.5-1.9,6.6-2.6,9.7-3.3
		c8.7-1.9,17.5-2.9,26.4-1.9c13.2,1.5,24.6,6.3,32.1,18c3.6,5.7,5.4,12,5.9,18.6c0.8,13.1-2.7,25.2-8.2,36.9
		c-6.9,14.7-16.4,27.6-27.2,39.7c-11.3,12.7-24,23.9-37.2,34.5C982,151.1,981.4,152.1,979.9,151.5z"/>
	<path class="st0" d="M924.3,197.3c35.5-21.6,70-44.6,100.4-73.2c14-13.2,26.8-27.4,36.2-44.2c6.2-11.1,10.6-22.8,10.7-35.8
		c0.1-7.9-1.6-15.4-5-22.5c-0.3-0.6-0.5-1.1-1-2c1.2,0.4,1.5,1.3,2,1.9c13.7,19,15.7,39.6,7.7,61.4c-6,16.5-16.2,30.3-28.3,42.7
		c-16.4,16.9-35.8,30-56.2,41.5c-20.7,11.7-42.3,21.4-64.3,30C925.8,197.3,925.1,197.8,924.3,197.3z"/>
	<g>
		<path class="st0" d="M35.7,117.5c-13.8,0-20.7-5.7-20.7-17c0-3.2,0.5-6.8,1.6-10.8C21.5,71.3,32.8,62,50.5,62h51.4l-5.7,21.2h-42
			c-5.2,0-8.4,2.2-9.6,6.6c-0.2,0.8-0.3,1.5-0.3,2.2c0,2.9,2.1,4.4,6.3,4.4h15.7c13.8,0,20.7,5.7,20.7,17c0,3.2-0.5,6.8-1.6,10.8
			c-4.9,18.5-16.3,27.7-33.9,27.7H0l5.7-21.2h42c5.2,0,8.4-2.2,9.6-6.6c0.2-0.8,0.3-1.5,0.3-2.2c0-2.9-2.1-4.4-6.3-4.4H35.7z"/>
		<path class="st0" d="M173.6,62h21.8l-17.1,63.6c-4.7,17.5-15.8,26.2-33.5,26.2h-31.1c-14,0-20.9-5.5-20.9-16.4
			c0-2.9,0.5-6.1,1.4-9.8l17-63.6h28.1l-16.2,60.5c-0.3,1.2-0.5,2.3-0.5,3.2c0,3.3,2,4.9,6,4.9h18.8c5.2,0,8.5-2.7,9.9-8L173.6,62z"
			/>
		<path class="st0" d="M252.5,151.8h-21.8l16.2-60.5c0.3-1.2,0.4-2.2,0.4-3.1c0-3.3-2-5-6.1-5h-14l-18.3,68.6h-28.1l24-89.8h45.1
			c6.8,0,11.7,1.1,14.7,3.4c4.2-2.3,9.8-3.4,16.5-3.4h12.4c14,0,21,5.5,21,16.4c0,2.9-0.5,6.1-1.4,9.8l-17,63.6l-21.9,0.1l16.3-60.5
			c0.3-1.2,0.4-2.2,0.4-3.1c0-3.3-2-5-6-5l-6.2-0.1c-5.2,0-8.5,2.7-10,8.1l-16,59.2L252.5,151.8z"/>
		<path class="st0" d="M329.5,62h57.7c13.8,0,20.7,5.6,20.7,17c0,3.2-0.5,6.8-1.6,10.8c-2,7.6-4.7,13.3-8.1,17
			c0.5,1.5,0.8,3.3,0.8,5.4c0,3.2-0.6,7.2-1.9,11.8c-5,18.5-16.3,27.7-33.9,27.7h-57.7L329.5,62z M342.9,117.4l-3.5,13.2h26.4
			c5.1,0,8.3-2.2,9.5-6.6c0.2-0.8,0.3-1.5,0.3-2.2c0-2.9-2.1-4.4-6.3-4.4L342.9,117.4L342.9,117.4z M348.6,96.2l26.3,0.1
			c5.2,0,8.4-2.2,9.5-6.6c0.2-0.8,0.3-1.5,0.3-2.2c0-2.9-2.1-4.4-6.3-4.4h-26.4L348.6,96.2z"/>
		<path class="st0" d="M436.2,117.5l-1.3,5c-0.3,1.2-0.5,2.3-0.5,3.2c0,3.3,2,4.9,6,4.9h42.1l-5.7,21.2h-51.4c-14,0-21-5.5-21-16.4
			c0-2.9,0.5-6.1,1.4-9.8l10-37.4c4.6-17.5,15.8-26.2,33.5-26.2h51.4l-5.7,21.2h-42c-5.2,0-8.5,2.7-9.9,8.1l-1.4,5h49.8l-5.7,21.2
			L436.2,117.5L436.2,117.5z"/>
		<path class="st0" d="M521.2,126.8l-6.7,24.9h-28.2L510.2,62h57.7c14,0,21,5.5,21,16.4c0,2.9-0.5,6.1-1.4,9.8l-3.3,12.5
			c-1.8,6.6-4.3,11.8-7.7,15.5c0.6,1.6,0.9,3.5,0.9,5.7c0,2.8-0.5,6.1-1.6,9.9l-5.3,19.9h-21.9l4.5-16.9c0.3-1.2,0.5-2.2,0.5-3.1
			c0-3.3-2-4.9-6.1-4.9L521.2,126.8L521.2,126.8z M526.8,105.7h26.4c5.2,0,8.5-2.7,9.9-8l1.7-6.3c0.3-1.2,0.4-2.2,0.4-3.1
			c0-3.3-2-5-6-5h-26.4L526.8,105.7z"/>
	</g>
	<g>
		<path class="st0" d="M659,130.6c5.2,0,8.5-2.7,9.9-8.1L685.1,62h28l-17,63.6c-4.7,17.5-15.8,26.2-33.5,26.2h-39l5.7-21.2
			L659,130.6L659,130.6z"/>
		<path class="st0" d="M733.2,126.8l-6.7,24.9h-28l17-63.6C720.2,70.7,731.3,62,749,62h31.1c14,0,21,5.5,21,16.4
			c0,2.9-0.5,6.1-1.4,9.8l-17,63.6l-21.9,0.1l6.7-25L733.2,126.8L733.2,126.8z M739,105.7h34.2l3.9-14.3c0.3-1.2,0.4-2.2,0.4-3.1
			c0-3.3-2-5-6-5h-18.7c-5.2,0-8.5,2.7-9.9,8.1L739,105.7z"/>
		<path class="st0" d="M858.9,105.7c5.2,0,8.5-2.7,9.9-8l9.5-35.6h21.8l-10.4,38.7c-4.7,17.5-15.3,26.2-31.9,26.2l-6.7,24.9h-28.1
			l6.7-24.9h-4.7c-14,0-21-5.5-21-16.4c0-2.9,0.5-6.1,1.4-9.8L816,62H844l-9.5,35.5c-0.3,1.2-0.5,2.3-0.5,3.2c0,3.3,2,4.9,6,4.9
			C840.1,105.6,858.9,105.6,858.9,105.7z"/>
		<path class="st0" d="M920.3,126.8l-6.7,24.9h-28l17-63.6C907.2,70.7,918.4,62,936,62h31.1c14,0,21,5.5,21,16.4
			c0,2.9-0.5,6.1-1.4,9.8l-17,63.6l-21.9,0.1l6.7-25L920.3,126.8L920.3,126.8z M926,105.7h34.2l3.9-14.3c0.3-1.2,0.4-2.2,0.4-3.1
			c0-3.3-2-5-6-5h-18.7c-5.2,0-8.5,2.7-9.9,8.1L926,105.7z"/>
	</g>
</g>
</svg>
